<svg version="1.2" xmlns="http://www.w3.org/2000/svg" viewBox="0 0 93 81" width="93" height="81">
	<title>logo_skieks_morado_claro</title>
	<defs>
		<filter x="-50%" y="-50%" width="200%" height="200%" id="f1" ><feDropShadow dx="0" dy="0" stdDeviation="4.166666666666667" flood-color="#2881b9" flood-opacity="1.9"/></filter>
		<filter x="-50%" y="-50%" width="200%" height="200%" id="f2" ><feDropShadow dx="0" dy="0" stdDeviation="4.166666666666667" flood-color="#2881b9" flood-opacity="1.9"/></filter>
	</defs>
	<style>
		.s0 { filter: url(#f1);fill: #2e80cc } 
		.s1 { filter: url(#f2);fill: #000000 } 
	</style>
	<path fill-rule="evenodd" class="s0" d="m28.8 39.1l13-38.2q0.2-0.5 0.6-0.7 0.4-0.2 0.8-0.2 0.5 0.1 0.8 0.5 0.3 0.3 0.3 0.8v42.3q0 0.2 0 0.3 0 0.2-0.1 0.4 0 0.1-0.1 0.3-0.1 0.1-0.1 0.3-0.3 0.4-0.7 0.7-0.4 0.3-0.9 0.5-0.5 0.1-1 0-0.5-0.1-0.9-0.3zm9.8 10q0.1 0.1 0.2 0.2 0.2 0.1 0.3 0.2 0.1 0.1 0.2 0.3 0.1 0.1 0.2 0.2 0.2 0.5 0.3 1 0.1 0.5-0.1 1-0.1 0.4-0.4 0.8-0.3 0.4-0.7 0.7l-36.7 21.2q-0.4 0.2-0.9 0.1-0.4-0.1-0.7-0.4-0.3-0.4-0.3-0.9 0-0.4 0.3-0.8l26.6-30.3zm5.7 23.3l-39.6 7.9q-0.2 0-0.4 0-0.2 0-0.4-0.1-0.2-0.1-0.3-0.2-0.2-0.2-0.3-0.3-0.1-0.3-0.1-0.5-0.1-0.3 0-0.5 0.1-0.2 0.2-0.4 0.2-0.2 0.4-0.4l36.7-21.1q0.1-0.1 0.3-0.2 0.1 0 0.3-0.1 0.1 0 0.3-0.1 0.2 0 0.3 0 0.5 0 1 0.2 0.5 0.2 0.8 0.6 0.4 0.3 0.6 0.8 0.2 0.5 0.2 1zm3.8-13.5q0-0.1 0-0.3 0-0.2 0.1-0.3 0-0.2 0.1-0.3 0-0.2 0.1-0.3 0.3-0.5 0.7-0.8 0.4-0.3 0.8-0.4 0.5-0.1 1-0.1 0.5 0.1 1 0.3l36.6 21.2q0.4 0.2 0.6 0.7 0.1 0.4 0 0.8-0.2 0.5-0.6 0.7-0.4 0.2-0.9 0.1l-39.5-7.8zm5.4-5.7q-0.1-0.1-0.3-0.2-0.1-0.2-0.2-0.3-0.1-0.1-0.2-0.3-0.2-0.4-0.3-0.9 0-0.5 0.1-1 0.1-0.5 0.4-0.9 0.3-0.4 0.8-0.6l11.6-6.7 26.6 30.3q0.1 0.2 0.2 0.3 0.1 0.2 0.1 0.4 0 0.2 0 0.4 0 0.2-0.1 0.4-0.2 0.2-0.4 0.3-0.2 0.2-0.4 0.3-0.3 0-0.5 0-0.3 0-0.5-0.2l-36.6-21.1q-0.2-0.1-0.3-0.2zm10-14.2l-11.6 6.7q-0.2 0.1-0.3 0.1-0.2 0.1-0.3 0.1-0.2 0.1-0.4 0.1-0.1 0-0.3 0-0.5 0-1-0.2-0.4-0.2-0.8-0.5-0.3-0.4-0.5-0.8-0.2-0.5-0.2-1v-42.3q0-0.5 0.3-0.9 0.3-0.3 0.7-0.4 0.5-0.1 0.9 0.2 0.4 0.2 0.5 0.6z"/>
	<path id="Layer copy" fill-rule="evenodd" class="s1" d="m28.8 39.1l13-38.2q0.2-0.5 0.6-0.7 0.4-0.2 0.8-0.2 0.5 0.1 0.8 0.5 0.3 0.3 0.3 0.8v42.3q0 0.2 0 0.3 0 0.2-0.1 0.4 0 0.1-0.1 0.3-0.1 0.1-0.1 0.3-0.3 0.4-0.7 0.7-0.4 0.3-0.9 0.5-0.5 0.1-1 0-0.5-0.1-0.9-0.3zm9.8 10q0.1 0.1 0.2 0.2 0.2 0.1 0.3 0.2 0.1 0.1 0.2 0.3 0.1 0.1 0.2 0.2 0.2 0.5 0.3 1 0.1 0.5-0.1 1-0.1 0.4-0.4 0.8-0.3 0.4-0.7 0.7l-36.7 21.2q-0.4 0.2-0.9 0.1-0.4-0.1-0.7-0.4-0.3-0.4-0.3-0.9 0-0.4 0.3-0.8l26.6-30.3zm5.7 23.3l-39.6 7.9q-0.2 0-0.4 0-0.2 0-0.4-0.1-0.2-0.1-0.3-0.2-0.2-0.2-0.3-0.3-0.1-0.3-0.1-0.5-0.1-0.3 0-0.5 0.1-0.2 0.2-0.4 0.2-0.2 0.4-0.4l36.7-21.1q0.1-0.1 0.3-0.2 0.1 0 0.3-0.1 0.1 0 0.3-0.1 0.2 0 0.3 0 0.5 0 1 0.2 0.5 0.2 0.8 0.6 0.4 0.3 0.6 0.8 0.2 0.5 0.2 1zm3.8-13.5q0-0.1 0-0.3 0-0.2 0.1-0.3 0-0.2 0.1-0.3 0-0.2 0.1-0.3 0.3-0.5 0.7-0.8 0.4-0.3 0.8-0.4 0.5-0.1 1-0.1 0.5 0.1 1 0.3l36.6 21.2q0.4 0.2 0.6 0.7 0.1 0.4 0 0.8-0.2 0.5-0.6 0.7-0.4 0.2-0.9 0.1l-39.5-7.8zm5.4-5.7q-0.1-0.1-0.3-0.2-0.1-0.2-0.2-0.3-0.1-0.1-0.2-0.3-0.2-0.4-0.3-0.9 0-0.5 0.1-1 0.1-0.5 0.4-0.9 0.3-0.4 0.8-0.6l11.6-6.7 26.6 30.3q0.1 0.2 0.2 0.3 0.1 0.2 0.1 0.4 0 0.2 0 0.4 0 0.2-0.1 0.4-0.2 0.2-0.4 0.3-0.2 0.2-0.4 0.3-0.3 0-0.5 0-0.3 0-0.5-0.2l-36.6-21.1q-0.2-0.1-0.3-0.2zm10-14.2l-11.6 6.7q-0.2 0.1-0.3 0.1-0.2 0.1-0.3 0.1-0.2 0.1-0.4 0.1-0.1 0-0.3 0-0.5 0-1-0.2-0.4-0.2-0.8-0.5-0.3-0.4-0.5-0.8-0.2-0.5-0.2-1v-42.3q0-0.5 0.3-0.9 0.3-0.3 0.7-0.4 0.5-0.1 0.9 0.2 0.4 0.2 0.5 0.6z"/>
</svg>